<svg width="50" height="50" viewBox="0 0 50 50" fill="none" xmlns="http://www.w3.org/2000/svg">
<path d="M17.7773 5.08636C16.0277 8.88423 15.4842 13.1271 16.2198 17.2433C16.9555 21.3596 18.935 25.1515 21.8918 28.1082C24.8485 31.065 28.6404 33.0445 32.7567 33.7802C36.8729 34.5158 41.1158 33.9723 44.9136 32.2227C42.6545 42.3955 33.5795 50 22.7273 50C10.175 50 0 39.825 0 27.2727C0 16.4205 7.60454 7.34545 17.7773 5.08636ZM36.7364 5.20682L38.6364 5.68182V7.95455L36.7364 8.42955C35.9373 8.62939 35.2075 9.04262 34.6251 9.62507C34.0426 10.2075 33.6294 10.9373 33.4295 11.7364L32.9545 13.6364H30.6818L30.2068 11.7364C30.007 10.9373 29.5937 10.2075 29.0113 9.62507C28.4289 9.04262 27.6991 8.62939 26.9 8.42955L25 7.95455V5.68182L26.9 5.20682C27.6987 5.00661 28.428 4.59322 29.01 4.0108C29.592 3.42838 30.0049 2.69881 30.2045 1.9L30.6818 0H32.9545L33.4295 1.9C33.6294 2.69909 34.0426 3.42885 34.6251 4.0113C35.2075 4.59374 35.9373 5.00697 36.7364 5.20682ZM48.1 16.5705L50 17.0455V19.3182L48.1 19.7932C47.3009 19.993 46.5711 20.4063 45.9887 20.9887C45.4063 21.5711 44.993 22.3009 44.7932 23.1L44.3182 25H42.0455L41.5705 23.1C41.3706 22.3009 40.9574 21.5711 40.3749 20.9887C39.7925 20.4063 39.0627 19.993 38.2636 19.7932L36.3636 19.3182V17.0455L38.2636 16.5705C39.0627 16.3706 39.7925 15.9574 40.3749 15.3749C40.9574 14.7925 41.3706 14.0627 41.5705 13.2636L42.0455 11.3636H44.3182L44.7932 13.2636C44.993 14.0627 45.4063 14.7925 45.9887 15.3749C46.5711 15.9574 47.3009 16.3706 48.1 16.5705Z" fill="#CEDCFF"/>
</svg>
