<svg width="50" height="50" viewBox="0 0 50 50" fill="none" xmlns="http://www.w3.org/2000/svg">
<path d="M25 38.6364C21.3834 38.6364 17.9149 37.1997 15.3576 34.6424C12.8003 32.0851 11.3636 28.6166 11.3636 25C11.3636 21.3834 12.8003 17.9149 15.3576 15.3576C17.9149 12.8003 21.3834 11.3636 25 11.3636C28.6166 11.3636 32.0851 12.8003 34.6424 15.3576C37.1997 17.9149 38.6364 21.3834 38.6364 25C38.6364 28.6166 37.1997 32.0851 34.6424 34.6424C32.0851 37.1997 28.6166 38.6364 25 38.6364ZM25 34.0909C27.4111 34.0909 29.7234 33.1331 31.4282 31.4282C33.1331 29.7234 34.0909 27.4111 34.0909 25C34.0909 22.5889 33.1331 20.2766 31.4282 18.5718C29.7234 16.8669 27.4111 15.9091 25 15.9091C22.5889 15.9091 20.2766 16.8669 18.5718 18.5718C16.8669 20.2766 15.9091 22.5889 15.9091 25C15.9091 27.4111 16.8669 29.7234 18.5718 31.4282C20.2766 33.1331 22.5889 34.0909 25 34.0909ZM22.7273 0H27.2727V6.81818H22.7273V0ZM22.7273 43.1818H27.2727V50H22.7273V43.1818ZM5.71591 8.92955L8.92955 5.71591L13.75 10.5364L10.5364 13.75L5.71591 8.92955ZM36.25 39.4636L39.4636 36.25L44.2841 41.0705L41.0705 44.2841L36.25 39.4636ZM41.0705 5.71364L44.2841 8.92955L39.4636 13.75L36.25 10.5364L41.0705 5.71591V5.71364ZM10.5364 36.25L13.75 39.4636L8.92955 44.2841L5.71591 41.0705L10.5364 36.25ZM50 22.7273V27.2727H43.1818V22.7273H50ZM6.81818 22.7273V27.2727H0V22.7273H6.81818Z" fill="#FFCA63"/>
</svg>
